<svg xmlns="http://www.w3.org/2000/svg" x="0px" y="0px" width="32" height="32" viewBox="0,0,256,256">
<g fill="#00ff00" fill-rule="nonzero" stroke="none" stroke-width="1" stroke-linecap="butt" stroke-linejoin="miter" stroke-miterlimit="10" stroke-dasharray="" stroke-dashoffset="0" font-family="none" font-weight="none" font-size="none" text-anchor="none" style="mix-blend-mode: normal"><path d="M0,256v-256h256v256z" id="bgRectangle"></path></g><g fill="#ffffff" fill-rule="nonzero" stroke="none" stroke-width="1" stroke-linecap="butt" stroke-linejoin="miter" stroke-miterlimit="10" stroke-dasharray="" stroke-dashoffset="0" font-family="none" font-weight="none" font-size="none" text-anchor="none" style="mix-blend-mode: normal"><g transform="scale(5.12,5.12)"><path d="M5,7c-2.75,0 -5,2.25 -5,5v26c0,2.75 2.25,5 5,5h40c2.75,0 5,-2.25 5,-5v-26c0,-2.75 -2.25,-5 -5,-5zM5,9h40c1.66797,0 3,1.33203 3,3v26c0,1.66797 -1.33203,3 -3,3h-40c-1.66797,0 -3,-1.33203 -3,-3v-26c0,-1.66797 1.33203,-3 3,-3zM17,13c-6.61719,0 -12,5.38281 -12,12c0,6.61719 5.38281,12 12,12c3.07813,0 5.875,-1.18359 8,-3.09375c2.125,1.91016 4.92578,3.09375 8,3.09375c6.61719,0 12,-5.38281 12,-12c0,-6.61719 -5.38281,-12 -12,-12c-3.07422,0 -5.875,1.18359 -8,3.09375c-2.125,-1.91016 -4.92187,-3.09375 -8,-3.09375zM33,15c5.53516,0 10,4.46484 10,10c0,5.53516 -4.46484,10 -10,10c-2.55078,0 -4.89062,-0.93359 -6.65625,-2.5c1.65234,-2.05859 2.65625,-4.66016 2.65625,-7.5c0,-2.83984 -1.00391,-5.44141 -2.65625,-7.5c1.76563,-1.56641 4.10547,-2.5 6.65625,-2.5z"></path></g></g><g fill="#fff8f8" fill-rule="nonzero" stroke="none" stroke-width="1" stroke-linecap="butt" stroke-linejoin="miter" stroke-miterlimit="10" stroke-dasharray="" stroke-dashoffset="0" font-family="none" font-weight="none" font-size="none" text-anchor="none" style="mix-blend-mode: normal"><g><path d="M42.986,255.183v-24.06l0.51,-5.38h-0.26l-1.94,4.92l-9.32,16.17h-1.28l-9.88,-16.23l-1.85,-4.86h-0.25l0.72,5.32v24.12h-4v-35.84h3.18l11.21,18.33l1.69,3.99h0.1l1.59,-4.09l10.7,-18.23h3.33v35.84zM56.396,234.553l-1.28,-3.08c1.3,-0.78 2.81,-1.36 4.53,-1.74c1.72667,-0.37333 3.52667,-0.56 5.4,-0.56v0c1.78,0 3.20667,0.24 4.28,0.72c1.07333,0.47333 1.89333,1.09667 2.46,1.87c0.56,0.76667 0.93333,1.61 1.12,2.53c0.19333,0.92 0.29,1.84333 0.29,2.77v0c0,2.04667 -0.05333,4.04333 -0.16,5.99c-0.1,1.94 -0.15,3.78333 -0.15,5.53v0c0,1.26 0.05,2.45333 0.15,3.58c0.10667,1.12667 0.29667,2.16667 0.57,3.12v0h-3.03l-1.07,-3.58h-0.26c-0.30667,0.48 -0.69,0.95 -1.15,1.41c-0.46,0.46 -1.01333,0.87 -1.66,1.23c-0.65333,0.35333 -1.40667,0.65 -2.26,0.89c-0.85333,0.24 -1.82333,0.36 -2.91,0.36v0c-1.09333,0 -2.11,-0.17 -3.05,-0.51c-0.94,-0.34 -1.75,-0.82667 -2.43,-1.46c-0.68667,-0.63333 -1.22667,-1.39333 -1.62,-2.28c-0.38667,-0.88667 -0.58,-1.89333 -0.58,-3.02v0c0,-1.5 0.30667,-2.75333 0.92,-3.76c0.61333,-1.00667 1.47333,-1.81 2.58,-2.41c1.11333,-0.6 2.44667,-1.02667 4,-1.28c1.55333,-0.25333 3.26667,-0.38 5.14,-0.38v0c0.48,0 0.95,0 1.41,0c0.46,0 0.93,0.03333 1.41,0.1v0c0.1,-1.02667 0.15,-1.95 0.15,-2.77v0c0,-1.87333 -0.37333,-3.18667 -1.12,-3.94c-0.75333,-0.75333 -2.12,-1.13 -4.1,-1.13v0c-0.58,0 -1.20333,0.04333 -1.87,0.13c-0.66667,0.08667 -1.35,0.20667 -2.05,0.36c-0.7,0.15333 -1.36333,0.34 -1.99,0.56c-0.63333,0.22667 -1.19,0.47667 -1.67,0.75zM62.386,252.013v0c0.96,0 1.81333,-0.13 2.56,-0.39c0.75333,-0.25333 1.40333,-0.57667 1.95,-0.97c0.54667,-0.39333 0.99667,-0.83 1.35,-1.31c0.36,-0.47333 0.62667,-0.93333 0.8,-1.38v0v-4.25c-0.48,-0.03333 -0.96667,-0.06 -1.46,-0.08c-0.49333,-0.01333 -0.98,-0.02 -1.46,-0.02v0c-1.06,0 -2.09333,0.06 -3.1,0.18c-1.00667,0.12 -1.89333,0.34 -2.66,0.66c-0.76667,0.32667 -1.38,0.77 -1.84,1.33c-0.46,0.56667 -0.69,1.27667 -0.69,2.13v0c0,1.19333 0.42667,2.17333 1.28,2.94c0.85333,0.77333 1.94333,1.16 3.27,1.16zM92.186,248.223v0c0,-1.02667 -0.30667,-1.83 -0.92,-2.41c-0.61333,-0.58 -1.37333,-1.06667 -2.28,-1.46c-0.90667,-0.39333 -1.89667,-0.77 -2.97,-1.13c-1.07333,-0.35333 -2.06333,-0.81333 -2.97,-1.38c-0.90667,-0.56 -1.66667,-1.28333 -2.28,-2.17c-0.61333,-0.88667 -0.92,-2.08333 -0.92,-3.59v0c0,-2.45333 0.7,-4.25333 2.1,-5.4c1.4,-1.14 3.34667,-1.71 5.84,-1.71v0c1.84,0 3.38333,0.16 4.63,0.48c1.24667,0.32667 2.33,0.71 3.25,1.15v0l-0.97,3.38c-0.78667,-0.37333 -1.73333,-0.70667 -2.84,-1c-1.11333,-0.28667 -2.3,-0.43 -3.56,-0.43v0c-1.5,0 -2.6,0.25667 -3.3,0.77c-0.7,0.51333 -1.05,1.4 -1.05,2.66v0c0,0.88667 0.30667,1.57667 0.92,2.07c0.61333,0.5 1.37333,0.94333 2.28,1.33c0.9,0.39333 1.89,0.78 2.97,1.16c1.07333,0.37333 2.06333,0.86667 2.97,1.48c0.9,0.61333 1.66,1.39 2.28,2.33c0.61333,0.94 0.92,2.17667 0.92,3.71v0c0,1.09333 -0.18,2.12 -0.54,3.08c-0.36,0.95333 -0.91333,1.77 -1.66,2.45c-0.75333,0.68667 -1.68667,1.22667 -2.8,1.62c-1.10667,0.38667 -2.41,0.58 -3.91,0.58v0c-1.94667,0 -3.60333,-0.18667 -4.97,-0.56c-1.36667,-0.37333 -2.51,-0.81667 -3.43,-1.33v0l1.23,-3.48c0.78667,0.44 1.81,0.85 3.07,1.23c1.26667,0.37333 2.54667,0.56 3.84,0.56v0c1.46667,0 2.68,-0.29 3.64,-0.87c0.95333,-0.58 1.43,-1.62 1.43,-3.12zM99.096,233.163v-3.58h4v-5.07l4.09,-1.18v6.25h6.97v3.58h-6.97v14.19c0,1.77333 0.22333,3.02667 0.67,3.76c0.44,0.73333 1.19,1.1 2.25,1.1v0c0.88667,0 1.63667,-0.09333 2.25,-0.28c0.62,-0.18667 1.30333,-0.43333 2.05,-0.74v0l0.92,3.12c-0.92,0.44667 -1.92667,0.80333 -3.02,1.07c-1.09333,0.27333 -2.27,0.41 -3.53,0.41v0c-2.08,0 -3.54667,-0.58667 -4.4,-1.76c-0.85333,-1.18 -1.28,-3.15333 -1.28,-5.92v0v-14.95zM136.426,250.163l1.53,2.97c-1.02,0.82 -2.30667,1.47 -3.86,1.95c-1.55333,0.47333 -3.2,0.71 -4.94,0.71v0c-1.94667,0 -3.63667,-0.31333 -5.07,-0.94c-1.43333,-0.63333 -2.61,-1.54 -3.53,-2.72c-0.92667,-1.17333 -1.61,-2.58 -2.05,-4.22c-0.44667,-1.64 -0.67,-3.48333 -0.67,-5.53v0c0,-4.36667 0.97333,-7.69333 2.92,-9.98c1.94667,-2.28667 4.73,-3.43 8.35,-3.43v0c1.16,0 2.32,0.12667 3.48,0.38c1.16,0.25333 2.2,0.74 3.12,1.46c0.92,0.71333 1.67,1.73 2.25,3.05c0.58,1.31333 0.87,3.04333 0.87,5.19v0c0,1.12667 -0.1,2.37333 -0.3,3.74v0h-16.44c0,1.5 0.15333,2.83 0.46,3.99c0.30667,1.16 0.78667,2.14333 1.44,2.95c0.64667,0.8 1.49,1.41333 2.53,1.84c1.04,0.42667 2.31,0.64 3.81,0.64v0c1.16667,0 2.33,-0.20333 3.49,-0.61c1.16,-0.41333 2.03,-0.89333 2.61,-1.44zM129.156,232.553v0c-2.01333,0 -3.62667,0.53 -4.84,1.59c-1.21333,1.05333 -1.94,2.86 -2.18,5.42v0h12.7c0,-2.59333 -0.49333,-4.41 -1.48,-5.45c-0.99333,-1.04 -2.39333,-1.56 -4.2,-1.56zM158.236,229.583l-0.87,3.94c-1.02667,-0.34 -2,-0.51 -2.92,-0.51v0c-1.46667,0 -2.62667,0.4 -3.48,1.2c-0.85333,0.80667 -1.38333,1.82333 -1.59,3.05v0v17.92h-4.09v-25.6h2.86l0.77,3.12h0.21c0.64667,-1.16 1.42,-2.05333 2.32,-2.68c0.90667,-0.63333 2.06,-0.95 3.46,-0.95v0c0.99333,0 2.10333,0.17 3.33,0.51zM178.816,250.373l1.33,3.12c-1.02,0.75333 -2.23,1.32667 -3.63,1.72c-1.4,0.38667 -2.87,0.58 -4.41,0.58v0c-1.98,0 -3.65,-0.31333 -5.01,-0.94c-1.36667,-0.63333 -2.48667,-1.54 -3.36,-2.72c-0.86667,-1.17333 -1.49667,-2.59 -1.89,-4.25c-0.39333,-1.65333 -0.59,-3.48667 -0.59,-5.5v0c0,-4.33333 0.95667,-7.65333 2.87,-9.96c1.90667,-2.3 4.65333,-3.45 8.24,-3.45v0c1.64,0 3.03,0.12667 4.17,0.38c1.14667,0.25333 2.18,0.62 3.1,1.1v0l-1.18,3.53c-0.78,-0.44 -1.65,-0.79 -2.61,-1.05c-0.95333,-0.25333 -1.97667,-0.38 -3.07,-0.38v0c-4.84667,0 -7.27,3.27667 -7.27,9.83v0c0,1.3 0.12667,2.53667 0.38,3.71c0.26,1.18 0.68667,2.22333 1.28,3.13c0.6,0.9 1.38667,1.62333 2.36,2.17c0.97333,0.54667 2.17667,0.82 3.61,0.82v0c1.22667,0 2.32667,-0.18667 3.3,-0.56c0.97333,-0.38 1.76667,-0.80667 2.38,-1.28zM186.646,234.553l-1.28,-3.08c1.3,-0.78 2.81333,-1.36 4.54,-1.74c1.72,-0.37333 3.52,-0.56 5.4,-0.56v0c1.77333,0 3.19667,0.24 4.27,0.72c1.08,0.47333 1.9,1.09667 2.46,1.87c0.56667,0.76667 0.94333,1.61 1.13,2.53c0.18667,0.92 0.28,1.84333 0.28,2.77v0c0,2.04667 -0.05333,4.04333 -0.16,5.99c-0.1,1.94 -0.15,3.78333 -0.15,5.53v0c0,1.26 0.05,2.45333 0.15,3.58c0.10667,1.12667 0.29667,2.16667 0.57,3.12v0h-3.02l-1.08,-3.58h-0.25c-0.30667,0.48 -0.69333,0.95 -1.16,1.41c-0.46,0.46 -1.01333,0.87 -1.66,1.23c-0.64667,0.35333 -1.39667,0.65 -2.25,0.89c-0.85333,0.24 -1.82667,0.36 -2.92,0.36v0c-1.09333,0 -2.11,-0.17 -3.05,-0.51c-0.94,-0.34 -1.75,-0.82667 -2.43,-1.46c-0.68,-0.63333 -1.21667,-1.39333 -1.61,-2.28c-0.39333,-0.88667 -0.59,-1.89333 -0.59,-3.02v0c0,-1.5 0.30667,-2.75333 0.92,-3.76c0.61333,-1.00667 1.47667,-1.81 2.59,-2.41c1.10667,-0.6 2.43667,-1.02667 3.99,-1.28c1.55333,-0.25333 3.27,-0.38 5.15,-0.38v0c0.47333,0 0.94,0 1.4,0c0.46,0 0.93,0.03333 1.41,0.1v0c0.1,-1.02667 0.15,-1.95 0.15,-2.77v0c0,-1.87333 -0.37333,-3.18667 -1.12,-3.94c-0.75333,-0.75333 -2.12,-1.13 -4.1,-1.13v0c-0.58,0 -1.20333,0.04333 -1.87,0.13c-0.66,0.08667 -1.34,0.20667 -2.04,0.36c-0.7,0.15333 -1.36667,0.34 -2,0.56c-0.63333,0.22667 -1.19,0.47667 -1.67,0.75zM192.646,252.013v0c0.95333,0 1.80667,-0.13 2.56,-0.39c0.74667,-0.25333 1.39333,-0.57667 1.94,-0.97c0.54667,-0.39333 1,-0.83 1.36,-1.31c0.36,-0.47333 0.62333,-0.93333 0.79,-1.38v0v-4.25c-0.48,-0.03333 -0.96667,-0.06 -1.46,-0.08c-0.49333,-0.01333 -0.98,-0.02 -1.46,-0.02v0c-1.05333,0 -2.08333,0.06 -3.09,0.18c-1.01333,0.12 -1.90333,0.34 -2.67,0.66c-0.76667,0.32667 -1.38,0.77 -1.84,1.33c-0.46,0.56667 -0.69,1.27667 -0.69,2.13v0c0,1.19333 0.42667,2.17333 1.28,2.94c0.85333,0.77333 1.94667,1.16 3.28,1.16zM224.126,229.583l-0.87,3.94c-1.02,-0.34 -1.99333,-0.51 -2.92,-0.51v0c-1.46667,0 -2.62667,0.4 -3.48,1.2c-0.85333,0.80667 -1.38,1.82333 -1.58,3.05v0v17.92h-4.1v-25.6h2.87l0.76,3.12h0.21c0.64667,-1.16 1.42333,-2.05333 2.33,-2.68c0.90667,-0.63333 2.06,-0.95 3.46,-0.95v0c0.98667,0 2.09333,0.17 3.32,0.51zM248.246,219.343v27.03c0,1.74 0.01667,3.32 0.05,4.74c0.03333,1.41333 0.18667,2.80333 0.46,4.17v0h-2.76l-1.03,-3.63h-0.2c-0.68667,1.19333 -1.67667,2.18333 -2.97,2.97c-1.3,0.78 -2.82,1.17 -4.56,1.17v0c-3.41333,0 -5.94667,-1.07333 -7.6,-3.22c-1.66,-2.15333 -2.49,-5.51667 -2.49,-10.09v0c0,-4.36667 1.03333,-7.68667 3.1,-9.96c2.06667,-2.26667 4.91,-3.4 8.53,-3.4v0c1.26,0 2.25667,0.06667 2.99,0.2c0.73333,0.14 1.52667,0.36333 2.38,0.67v0v-10.65zM237.906,252.213v0c1.74,0 3.12,-0.45333 4.14,-1.36c1.02667,-0.9 1.72667,-2.27333 2.1,-4.12v0v-12.7c-0.61333,-0.47333 -1.31333,-0.81333 -2.1,-1.02c-0.78,-0.20667 -1.82,-0.31 -3.12,-0.31v0c-2.35333,0 -4.19667,0.77667 -5.53,2.33c-1.33333,1.55333 -2,4.03667 -2,7.45v0c0,1.4 0.11333,2.69667 0.34,3.89c0.22,1.2 0.58667,2.22667 1.1,3.08c0.51333,0.85333 1.18667,1.52667 2.02,2.02c0.83333,0.49333 1.85,0.74 3.05,0.74z"></path></g></g>
</svg>